<svg xmlns="http://www.w3.org/2000/svg" xmlns:xlink="http://www.w3.org/1999/xlink" viewBox="0 0 1232.6 1232.6"><defs><style>.cls-1{fill:none;}.cls-2{fill:#ff7b12;}.cls-3{clip-path:url(#clip-path);}.cls-4{fill:#ef7d29;filter:url(#filter);}</style><clipPath id="clip-path"><polygon class="cls-1" points="257.13 160.1 257.13 657.13 616.53 657.13 1156.13 848.22 1156.13 700.69 257.13 159.18 257.13 160.1"/></clipPath><filter id="filter" x="16.3" y="98.3" width="1020" height="810" filterUnits="userSpaceOnUse"><feOffset input="SourceAlpha"/><feGaussianBlur stdDeviation="20" result="blur"/><feFlood/><feComposite operator="in" in2="blur"/><feComposite in="SourceGraphic"/></filter></defs><g id="Layer_2_copy" data-name="Layer 2 copy"><polygon class="cls-2" points="257.13 160.1 257.13 657.13 616.53 657.13 1156.13 848.22 1156.13 700.69 257.13 159.18 257.13 160.1"/><g class="cls-3"><polygon class="cls-4" points="975.47 159.17 975.47 657.13 616.07 657.13 247.47 787.66 233.27 792.69 219.07 797.72 204.87 802.75 190.67 807.78 176.47 812.81 76.47 848.22 76.47 700.69 176.47 640.45 190.67 631.9 204.87 623.35 219.07 614.79 247.47 597.69 975.47 159.17"/></g><polygon class="cls-2" points="975.47 159.17 975.47 657.13 616.07 657.13 247.47 787.66 233.27 792.69 219.07 797.72 204.87 802.75 190.67 807.78 176.47 812.81 76.47 848.22 76.47 700.69 176.47 640.45 190.67 631.9 204.87 623.35 219.07 614.79 247.47 597.69 975.47 159.17"/><path d="M76.3,948h78.28v26.3H106v25.89h44.71v25.89H106v43.29H76.3Zm22.25,115.71V968.64l-14.77-15v110.05Z"/><path d="M166.92,948h29.74v95.88h52.8v25.49H166.92Zm22.25,101.55V953.67H174.41v110.05Z"/><path d="M263.82,948h29.73v121.37H263.82Zm22.25,115.71v-43.29H271.3v43.29Z"/><path d="M378.11,944c22.45,0,38,8.3,50.77,21.24l-20.63,19c-8.3-7.49-18.61-12.14-30.14-12.14-21.65,0-35.6,16.18-35.6,36.62,0,22.45,16,36.61,36.2,36.61,21.24,0,31.56-11.73,32.37-23.47H376.49V996.15h66.75v11.53c0,35.81-21,65.75-65.13,65.75-38.44,0-65.75-28.53-65.75-64.73S339.67,944,378.11,944Zm-41.47,52.19c4.85-17.39,20.23-29.73,41.47-29.73a53.16,53.16,0,0,1,29.73,9.71l11.74-11.33c-10.52-9.91-24.08-15.17-41.47-15.17-29.54,0-51.79,19.62-57.05,46.52Z"/><path d="M462.66,948H492.4v47.74h47.53V948h29.54v121.37H539.93v-47.94H492.4v47.94H462.66Zm22.25,115.71v-42.28H470.15v42.28Zm77.07,0v-42.28H547.42v42.28Z"/><path d="M610.33,974.31H583.22V948h84.56v26.3H640.27v95.07H610.33ZM633,1063.72V974.31H617.41v89.41Z"/><path d="M792,944c23.06,0,39,8.7,52,22.26l-20.43,19.41c-8.5-8.29-19.42-13.55-31.56-13.55-21.64,0-35.6,16.18-35.6,36.62s14,36.61,35.6,36.61c12.14,0,23.06-5.26,31.56-13.55l19.82,19.41c-12.13,12.75-28.92,22.26-51.38,22.26-38.43,0-65.74-28.53-65.74-64.73S753.55,944,792,944Zm31.36,33.38,11.53-11.12c-10.72-10.93-24.68-16.59-42.89-16.59v16.79A52.19,52.19,0,0,1,823.34,977.34Zm11.12,74.24-11.53-11.73c-7.28,6.47-18.81,11.12-30.95,11.12v16.79C809.78,1067.76,823.14,1062.1,834.46,1051.58Z"/><path d="M858.33,948h29.74v95.88h52.8v25.49H858.33Zm22.26,101.55V953.67H865.82v110.05Z"/><path d="M951.18,948h29.54v76.06c0,16.18,7.68,21.85,18,21.85,11.33,0,18.41-5.67,18.41-21.85V948h29.73v80.51c0,28.72-21.44,44.91-48.14,44.91-27.71,0-47.54-17-47.54-44.91Zm22.26,48.75V953.67H958.67v43.09Zm65.94,0V953.67h-15v43.09Z"/><path d="M1066.28,948h49c20.23,0,36.42,15,36.42,34,0,11.33-4.66,18.41-13.15,24.89v.4c12.54,8.9,17.8,17.4,17.8,29.94,0,16.79-13.35,32.16-36.41,32.16h-53.61Zm22,115.71V953.67h-14.56v110.05ZM1110,996.36c6.88,0,11.74-4.66,11.74-11.33,0-6.27-4.86-11.13-11.74-11.13h-14.15v22.46Zm3.85,46.52c6.88,0,11.33-4,11.33-10.52,0-5.86-4.45-10.72-11.33-10.72h-18v21.24Z"/><path class="cls-2" d="M86.62,956.51h58.46v1H87.63Zm4,4h54.42v1H91.67Zm4,4.05h50.37v1H95.72Zm3.84,43.89h42.68v1H98.55Zm0,4h42.68v1H98.55Zm0,4h42.68v1H98.55Z"/><path class="cls-2" d="M178.05,1060.28H240v1H177Zm4.25-4H240v1H181.29Zm4.25-4H240v1H185.33Z"/><path class="cls-2" d="M273.32,955.49H284v1H273.32Zm0,4H284v1H273.32Zm0,4.05H284v1H273.32Zm0,4H284v1H273.32Zm0,4H284v1H273.32Zm0,4H284v1H273.32Zm0,4H284v1H273.32Zm0,4H284v1H273.32Zm0,4.05H284v1H273.32Zm0,4H284v1H273.32Zm0,4H284v1H273.32Zm0,4H284v1H273.32Zm0,4H284v1H273.32Zm0,4.05H284v1H273.32Zm0,4H284v1H273.32Z"/><path class="cls-2" d="M322.07,1004.24H333l-.2,1H321.87Zm-.2,4H332.8v1H321.87Zm0,4.05H332.8l.2,1H322.07Zm.61-12.14h11.13l-.41,1H322.28Zm-.2,16.18H333.2l.41,1H322.48Zm.81-20.23h11.32l-.4,1H322.88Zm-.21,24.28H334l.4,1H323.29Zm1,4h11.33l.41,1H324.1Zm1.22,4h11.73l.61,1H325.31Zm1.42,4h12.54l.81,1H327.13Zm2,4H341.9l1,1H329.15Zm2.42,4.05h14.57l1,1h-15Zm3,4h16.18l1.22,1H334.62Zm23.26,4,2,1H338.46l-1-1Zm14.16,4a60.23,60.23,0,0,0,6.68.41,50.61,50.61,0,0,0,6.47-.41h31.76l-1.21,1H343.31l-1.21-1Zm39.85,4-1.41,1H349.18l-1.42-1Zm-7.48,4.05-2.63,1h-43.7l-2.63-1Zm-16.39,4c-1.62.41-4.25.61-9.3.61a69.54,69.54,0,0,1-9.51-.61Zm-.81-60.69h46.73v1H386.6Zm0,4h46.73v1H386.6Zm0,4.05h46.73v1H386.6Zm13.15,36.41h21l-1,1h-22Zm7.69-4h16.38l-.81,1H405.82Zm4.45-4h14.16l-.81,1H410.88Zm3.44-4.05h12.54l-.61,1H414.32Zm2.22-4h12.14l-.61,1H416.74Zm1.62-4H430.7l-.4,1H418.77Zm1.42-4h11.12l-.4,1H420.38Zm.81-4h10.92l-.2,1H421Zm.4-4h10.92v1H421.6Z"/><path class="cls-2" d="M472.17,955.49h10.72v1H472.17Zm0,4h10.72v1H472.17Zm0,4.05h10.72v1H472.17Zm0,4h10.72v1H472.17Zm0,4h10.72v1H472.17Zm0,4h10.72v1H472.17Zm0,4h10.72v1H472.17Zm0,4h10.72v1H472.17Zm0,4.05h10.72v1H472.17Zm0,4h10.72v1H472.17Zm0,4h10.72v1H472.17Zm0,4h10.72v1H472.17Zm0,4H560v1H472.17Zm0,4.05H560v1H472.17Zm0,4H560v1H472.17Zm77.07-56.64H560v1H549.24Zm0,4H560v1H549.24Zm0,4.05H560v1H549.24Zm0,4H560v1H549.24Zm0,4H560v1H549.24Zm0,4H560v1H549.24Zm0,4H560v1H549.24Zm0,4H560v1H549.24Zm0,4.05H560v1H549.24Zm0,4H560v1H549.24Zm0,4H560v1H549.24Zm0,4H560v1H549.24Z"/><path class="cls-2" d="M592.73,956.71h65.54v1H592.73Zm0,4h65.54v1H592.73Zm0,4h65.54v1H592.73Z"/><path class="cls-2" d="M736,1004.24h10.92l-.2,1H735.75Zm-.2,4h10.92v1H735.75Zm0,4.05h10.92l.2,1H736Zm.61-12.14h11.12l-.4,1H736.15Zm-.21,16.18h10.93l.4,1H736.36Zm.81-20.23h11.33l-.4,1H736.76Zm-.2,24.28h11.13l.4,1H737.16ZM738,992.11H749.5l-.4,1H737.77Zm-.2,32.36H749.1l.4,1H738Zm1.42-36.41h12.13l-.6,1H739Zm-.21,40.46h11.74l.6,1H739.19Zm1.83-44.5h12.74l-.81,1H740.4Zm-.41,48.55h12.54l.81,1H741Zm2.43-52.6h13.75l-.81,1H742.22Zm-.41,56.64h13.35l1,1H743Zm3-60.68h15l-1.22,1H744.65Zm-.61,64.73h14.57l1,1h-15Zm3.44-68.78h17l-1.41,1H747.48Zm-.4,72.82h16.18l1.21,1H748.49Zm4.24-76.87h21.24l-2.63,1H751.12Zm19,80.92,2,1H752.34l-1-1Zm-14.36-85H792v.4l-7.89.61H755.17Zm28.52,89c2,0,4.85.21,6.67.41v.61H757.19l-1.21-1Zm-22.66-93H792v1H761Zm29.33,97.1v1H763.06l-1.42-1ZM771,955.7h21v1H768.32Zm21,105.19v1H771.35l-2.63-1Zm0-109v.81H781.67A44.08,44.08,0,0,1,792,951.85Zm0,113.08v.61h-.4l-9.1-.61Z"/><path class="cls-2" d="M869.46,1060.28h61.9v1H868.45Zm4.25-4h57.65v1H872.7Zm4.25-4h53.4v1H876.74Z"/><path class="cls-2" d="M960.69,998.58h10.52v1H960.69Zm0,4h10.52v1H960.69Zm0,4h10.52v1H960.69Zm0,4.05h10.52v1H960.69Zm0,4h10.52v1H960.69Zm0,4h10.52v1H960.69Zm0,4.05h10.52v1H960.69Zm0,4h10.52l.2,1H960.69Zm0,4h10.72l.41,1H960.69Zm.41,4h11.12l.41,1H961.3Zm.8,4h11.74l.4,1H962.11Zm1.22,4h12.34l1,1H963.32Zm1.82,4.05h14l1.21,1H965.55Zm20,4,2.42,1H968.18l-.81-1Zm41.87,4-1.22,1H972l-1-1Zm-5.46,4-1.62,1H977.68l-1.41-1Zm-8.09,4-3.85,1H987.8l-3.64-1Zm0-12.14h17l-.81,1h-18.81Zm5.86-4h13.55l-.4,1h-14.16Zm3.24-4.05h12.34l-.41,1h-12.74Zm1.82-4h11.93l-.4,1H1023.8Zm1.41-4H1037l-.4,1h-11.33Zm.61-4h11.13l-.2,1H1026Zm.2-4h10.93v1h-10.93Zm.21-28.32h10.72v1h-10.72Zm0,4h10.72v1h-10.72Zm0,4h10.72v1h-10.72Zm0,4.05h10.72v1h-10.72Zm0,4h10.72v1h-10.72Zm0,4h10.72v1h-10.72Zm0,4.05h10.72v1h-10.72Z"/><path class="cls-2" d="M1088.33,956.51h32.77l3.64,1h-36.41Zm0,3.84h42.08l-.21-.2,1.62,1.21h-43.49Zm0,4h46.73l.81,1h-47.54Zm0,40.06H1129l-1.42,1h-39.24Zm0,4h38.23l1.42,1h-39.65Zm0,4h43.9l1,.81h-44.91Zm0,39.85h53l-1,1h-52Zm0,4h48.75l-1.41,1h-47.34Zm0,4h40.05l-8.49,1h-31.56Zm50-92,.4,1h-16.18l-2.23-1Zm-14.77,32h10.92l-1.21,1h-10.93Zm1,48.15h19.22l-.41.8h-20.43Zm12.34-32.17,1,1h-11.12l-1.62-1Zm-10.72-43.89h14l.4,1h-13.35Zm1.41,23.87h10.12l-.81,1h-10.32Zm1.42-19.83h12.54v.81h-12.14Zm1,68h15.58l-.41,1H1129Zm0-52h9.91l-.6,1h-9.92Zm10.52,27.92.81,1h-10.52l-1-1Zm-9.91-40h11.33v1h-11.13Zm.4,8.09h10.32l-.41,1h-10.31Zm.21-4.05h10.72v1h-10.72Zm1.61,56h13.76l-.41,1h-14Zm10.12-16,.6,1h-10.31l-.61-1Zm-8.7,11.94h12.54v1h-12.74Zm0-7.89H1145l.41,1h-10.93Zm.4,3.84h11.53v1h-11.53Z"/></g></svg>