<svg xmlns="http://www.w3.org/2000/svg" xmlns:xlink="http://www.w3.org/1999/xlink" viewBox="0 0 1200 900"><defs><style>.cls-1{fill:none;}.cls-2{fill:#ff7b12;}.cls-3{clip-path:url(#clip-path);}.cls-4{fill:#ef7d29;filter:url(#filter);}</style><clipPath id="clip-path"><polygon class="cls-1" points="240.83 23.8 240.83 520.83 600.23 520.83 1139.83 711.92 1139.83 564.39 240.83 22.88 240.83 23.8"/></clipPath><filter id="filter" x="0" y="-37.56" width="1020" height="810" filterUnits="userSpaceOnUse"><feOffset input="SourceAlpha"/><feGaussianBlur stdDeviation="20" result="blur"/><feFlood/><feComposite operator="in" in2="blur"/><feComposite in="SourceGraphic"/></filter></defs><g id="Layer_2_copy" data-name="Layer 2 copy"><polygon class="cls-2" points="240.83 23.8 240.83 520.83 600.23 520.83 1139.83 711.92 1139.83 564.39 240.83 22.88 240.83 23.8"/><g class="cls-3"><polygon class="cls-4" points="959.17 22.87 959.17 520.83 599.77 520.83 231.17 651.36 216.97 656.39 202.77 661.42 188.57 666.45 174.37 671.48 160.17 676.51 60.17 711.92 60.17 564.39 160.17 504.15 174.37 495.6 188.57 487.05 202.77 478.49 231.17 461.39 959.17 22.87"/></g><polygon class="cls-2" points="959.17 22.87 959.17 520.83 599.77 520.83 231.17 651.36 216.97 656.39 202.77 661.42 188.57 666.45 174.37 671.48 160.17 676.51 60.17 711.92 60.17 564.39 160.17 504.15 174.37 495.6 188.57 487.05 202.77 478.49 231.17 461.39 959.17 22.87"/><path d="M60,751.71h78.28V778H89.74V803.9h44.7v25.89H89.74v43.29H60ZM82.25,867.42V772.34l-14.76-15v110Z"/><path d="M150.62,751.71h29.74v95.88h52.8v25.49H150.62Zm22.26,101.55V757.38H158.11v110Z"/><path d="M247.52,751.71h29.73V873.08H247.52Zm22.25,115.71V824.13H255v43.29Z"/><path d="M361.81,747.67c22.45,0,38,8.29,50.77,21.24l-20.63,19c-8.29-7.48-18.61-12.14-30.14-12.14-21.65,0-35.6,16.19-35.6,36.62,0,22.45,16,36.61,36.21,36.61,21.24,0,31.55-11.73,32.36-23.46H360.19V799.86h66.75v11.53c0,35.8-21,65.74-65.13,65.74-38.44,0-65.74-28.52-65.74-64.73S323.37,747.67,361.81,747.67Zm-41.47,52.19c4.86-17.4,20.23-29.74,41.47-29.74a53.16,53.16,0,0,1,29.73,9.71l11.74-11.33c-10.52-9.91-24.08-15.17-41.47-15.17-29.53,0-51.79,19.62-57.05,46.53Z"/><path d="M446.36,751.71H476.1v47.74h47.54V751.71h29.53V873.08H523.64V825.14H476.1v47.94H446.36Zm22.25,115.71V825.14H453.85v42.28Zm77.08,0V825.14H531.12v42.28Z"/><path d="M594,778H566.92v-26.3h84.56V778H624v95.07H594Zm22.66,89.41V778H601.11v89.41Z"/><path d="M775.69,747.67c23.06,0,39,8.69,52,22.25l-20.43,19.42c-8.49-8.3-19.42-13.56-31.55-13.56-21.65,0-35.61,16.19-35.61,36.62S754,849,775.69,849c12.13,0,23.06-5.26,31.55-13.55l19.83,19.42c-12.14,12.74-28.93,22.25-51.38,22.25-38.44,0-65.75-28.52-65.75-64.73S737.25,747.67,775.69,747.67ZM807,781l11.53-11.12c-10.72-10.93-24.68-16.59-42.88-16.59v16.79A52.16,52.16,0,0,1,807,781Zm11.12,74.24-11.53-11.73c-7.28,6.47-18.81,11.12-30.94,11.12v16.79C793.49,871.46,806.84,865.8,818.16,855.28Z"/><path d="M842,751.71h29.73v95.88h52.8v25.49H842Zm22.25,101.55V757.38H849.52v110Z"/><path d="M934.89,751.71h29.53v76.06c0,16.18,7.69,21.85,18,21.85,11.33,0,18.41-5.67,18.41-21.85V751.71h29.74v80.51c0,28.73-21.45,44.91-48.15,44.91-27.71,0-47.53-17-47.53-44.91Zm22.25,48.75V757.38H942.37v43.08Zm65.94,0V757.38h-15v43.08Z"/><path d="M1050,751.71h49c20.22,0,36.41,15,36.41,34,0,11.32-4.66,18.4-13.15,24.88v.4c12.54,8.9,17.8,17.4,17.8,29.94,0,16.79-13.35,32.16-36.41,32.16H1050Zm22,115.71v-110h-14.56v110Zm21.65-67.36c6.87,0,11.73-4.66,11.73-11.33,0-6.27-4.86-11.13-11.73-11.13h-14.16v22.46Zm3.84,46.52c6.88,0,11.33-4,11.33-10.52,0-5.86-4.45-10.72-11.33-10.72h-18v21.24Z"/><path class="cls-2" d="M70.32,760.21h58.46v1H71.33Zm4,4h54.42v1H75.37Zm4,4h50.37v1H79.42Zm3.84,43.89h42.68v1H82.25Zm0,4h42.68v1H82.25Zm0,4h42.68v1H82.25Z"/><path class="cls-2" d="M161.75,864h61.9v1H160.74Zm4.25-4.05h57.65v1H165Zm4.25-4h53.4v1H169Z"/><path class="cls-2" d="M257,759.2h10.72v1H257Zm0,4h10.72v1H257Zm0,4h10.72v1H257Zm0,4h10.72v1H257Zm0,4h10.72v1H257Zm0,4h10.72v1H257Zm0,4.05h10.72v1H257Zm0,4h10.72v1H257Zm0,4h10.72v1H257Zm0,4.05h10.72v1H257Zm0,4h10.72v1H257Zm0,4.05h10.72v1H257Zm0,4h10.72v1H257Zm0,4h10.72v1H257Zm0,4.05h10.72v1H257Z"/><path class="cls-2" d="M305.78,808H316.7l-.2,1H305.57Zm-.21,4H316.5v1H305.57Zm0,4H316.5l.2,1H305.78Zm.61-12.14h11.13l-.41,1H306Zm-.2,16.18H316.9l.41,1H306.18Zm.81-20.22h11.33l-.41,1H306.58Zm-.21,24.27h11.13l.41,1H307Zm1,4h11.32l.41,1H307.8Zm1.21,4.05h11.73l.61,1H309Zm1.42,4h12.54l.81,1H310.83Zm2,4H325.6l1,1H312.86Zm2.43,4.05h14.56l1,1h-15Zm3,4h16.18l1.22,1H318.32ZM341,852.45l2,1H322.16l-1-1Zm14.16,4a63,63,0,0,0,6.68.4,52.81,52.81,0,0,0,6.47-.4H400l-1.21,1H327l-1.22-1Zm39.85,4-1.41,1H332.88l-1.41-1Zm-7.48,4.05-2.63,1H341.18l-2.63-1Zm-16.39,4c-1.61.41-4.24.61-9.3.61a69.54,69.54,0,0,1-9.51-.61ZM370.3,808H417v1H370.3Zm0,4H417v1H370.3Zm0,4H417v1H370.3Zm13.15,36.41h21l-1,1H381.43Zm7.69-4.05h16.39l-.81,1h-17.2Zm4.45-4h14.16l-.81,1H394.58Zm3.44-4.05h12.54l-.61,1H398Zm2.22-4h12.14l-.61,1H400.45Zm1.62-4H414.4l-.4,1H402.47Zm1.42-4.05h11.12l-.4,1H404.09Zm.81-4H416l-.2,1H404.69Zm.4-4h10.93v1H405.3Z"/><path class="cls-2" d="M455.87,759.2h10.72v1H455.87Zm0,4h10.72v1H455.87Zm0,4h10.72v1H455.87Zm0,4h10.72v1H455.87Zm0,4h10.72v1H455.87Zm0,4h10.72v1H455.87Zm0,4.05h10.72v1H455.87Zm0,4h10.72v1H455.87Zm0,4h10.72v1H455.87Zm0,4.05h10.72v1H455.87Zm0,4h10.72v1H455.87Zm0,4.05h10.72v1H455.87Zm0,4h87.79v1H455.87Zm0,4h87.79v1H455.87Zm0,4.05h87.79v1H455.87Zm77.07-56.64h10.72v1H532.94Zm0,4h10.72v1H532.94Zm0,4h10.72v1H532.94Zm0,4h10.72v1H532.94Zm0,4h10.72v1H532.94Zm0,4h10.72v1H532.94Zm0,4.05h10.72v1H532.94Zm0,4h10.72v1H532.94Zm0,4h10.72v1H532.94Zm0,4.05h10.72v1H532.94Zm0,4h10.72v1H532.94Zm0,4.05h10.72v1H532.94Z"/><path class="cls-2" d="M576.43,760.41H642v1H576.43Zm0,4.05H642v1H576.43Zm0,4H642v1H576.43Z"/><path class="cls-2" d="M719.65,808h10.93l-.21,1H719.45Zm-.2,4h10.92v1H719.45Zm0,4h10.92l.21,1H719.65Zm.61-12.14h11.12l-.4,1H719.85Zm-.21,16.18h10.93l.4,1H720.06Zm.81-20.22H732l-.4,1H720.46Zm-.2,24.27h11.13l.4,1H720.87Zm1.21-28.32h11.54l-.41,1H721.47Zm-.2,32.36H732.8l.41,1H721.67Zm1.42-36.41H735l-.61,1H722.69Zm-.2,40.46h11.73l.61,1H722.89Zm1.82-44.5h12.74l-.81,1H724.1Zm-.41,48.55h12.54l.81,1H724.71Zm2.43-52.6h13.76l-.81,1H725.92Zm-.4,56.64h13.35l1,1H726.73Zm3-60.68h15l-1.21,1H728.35Zm-.61,64.73h14.57l1,1h-15ZM732,775.58h17l-1.41,1H731.18Zm-.4,72.82h16.18l1.21,1H732.19Zm4.25-76.86h21.24l-2.63,1H734.82Zm19,80.91,2,1H736l-1-1Zm-14.36-85h35.2v.4l-7.89.61H738.87Zm28.52,89c2,0,4.85.2,6.68.4v.61h-34.8l-1.21-1Zm-22.66-93.06h29.34v1h-31Zm29.34,97.1v1H746.76l-1.42-1Zm-21-101.14h21v1H752Zm21,105.19v1H755.05l-2.63-1Zm0-109v.81H765.37A44.13,44.13,0,0,1,775.69,755.55Zm0,113.08v.61h-.41l-9.1-.61Z"/><path class="cls-2" d="M853.16,864h61.9v1H852.15Zm4.25-4.05h57.65v1H856.4Zm4.25-4h53.4v1H860.44Z"/><path class="cls-2" d="M944.39,802.28h10.52v1H944.39Zm0,4.05h10.52v1H944.39Zm0,4h10.52v1H944.39Zm0,4h10.52v1H944.39Zm0,4.05h10.52v1H944.39Zm0,4h10.52v1H944.39Zm0,4h10.52v1H944.39Zm0,4h10.52l.2,1H944.39Zm0,4h10.72l.41,1H944.39Zm.41,4h11.12l.41,1H945Zm.81,4h11.73l.4,1H945.81Zm1.21,4h12.34l1,1H947Zm1.82,4.05h14l1.21,1H949.25Zm20,4,2.42,1H951.88l-.81-1Zm41.87,4-1.21,1H955.72l-1-1Zm-5.46,4.05-1.62,1H961.39L960,863ZM997,867l-3.85,1H971.5l-3.64-1Zm0-12.13h17l-.81,1H994.36Zm5.86-4h13.56l-.41,1h-14.16Zm3.24-4.05h12.34l-.41,1h-12.74Zm1.82-4h11.94l-.41,1h-11.93Zm1.42-4h11.32l-.4,1h-11.33Zm.6-4h11.13l-.2,1h-11.13Zm.21-4h10.92v1h-10.92Zm.2-28.32h10.72v1h-10.72Zm0,4.05h10.72v1h-10.72Zm0,4h10.72v1h-10.72Zm0,4h10.72v1h-10.72Zm0,4.05h10.72v1h-10.72Zm0,4h10.72v1h-10.72Zm0,4h10.72v1h-10.72Z"/><path class="cls-2" d="M1072,760.21h32.77l3.64,1H1072Zm0,3.84h42.08l-.2-.2,1.61,1.21H1072Zm0,4.05h46.73l.81,1H1072Zm0,40h40.66l-1.41,1H1072Zm0,4h38.23l1.42,1H1072Zm0,4h43.9l1,.81H1072Zm0,39.85h53l-1,1h-52Zm0,4h48.75l-1.41,1H1072Zm0,4h40l-8.49,1H1072Zm50-92,.4,1h-16.18l-2.23-1Zm-14.77,32h10.92l-1.21,1H1106Zm1,48.15h19.22l-.41.81h-20.43Zm12.34-32.17,1,1h-11.12l-1.62-1Zm-10.72-43.89h14l.4,1h-13.35Zm1.42,23.87h10.11l-.81,1h-10.32Zm1.41-19.83h12.54V781H1113.1Zm1,68h15.58l-.41,1h-16.18Zm0-52h9.91l-.6,1h-9.91Zm10.52,27.92.81,1h-10.52l-1-1Zm-9.91-40h11.33v1h-11.13Zm.4,8.09H1125l-.4,1h-10.32Zm.21-4h10.72v1h-10.72Zm1.61,56h13.76l-.4,1h-14Zm10.12-16,.61,1h-10.32l-.61-1Zm-8.7,11.94h12.54v1h-12.74Zm0-7.89h10.72l.41,1h-10.93Zm.41,3.84h11.53v1h-11.53Z"/></g></svg>