<svg id="Layer_2" data-name="Layer 2" xmlns="http://www.w3.org/2000/svg" xmlns:xlink="http://www.w3.org/1999/xlink" viewBox="0 0 1200 900"><defs><style>.cls-1{fill:none;}.cls-2,.cls-4{fill:#ef7d29;}.cls-3{clip-path:url(#clip-path);}.cls-4{filter:url(#filter);}</style><clipPath id="clip-path"><polygon class="cls-1" points="240.83 106.41 240.83 603.43 600.23 603.43 1139.83 794.52 1139.83 647 240.83 105.48 240.83 106.41"/></clipPath><filter id="filter" x="0" y="45" width="1020" height="810" filterUnits="userSpaceOnUse"><feOffset input="SourceAlpha"/><feGaussianBlur stdDeviation="20" result="blur"/><feFlood/><feComposite operator="in" in2="blur"/><feComposite in="SourceGraphic"/></filter></defs><polygon class="cls-2" points="240.83 106.41 240.83 603.43 600.23 603.43 1139.83 794.52 1139.83 647 240.83 105.48 240.83 106.41"/><g class="cls-3"><polygon class="cls-4" points="959.17 105.47 959.17 603.43 599.77 603.43 231.17 733.97 216.97 739 202.77 744.02 188.57 749.05 174.37 754.09 160.17 759.12 60.17 794.52 60.17 647 160.17 586.75 174.37 578.21 188.57 569.65 202.77 561.1 231.17 544 959.17 105.47"/></g><polygon class="cls-2" points="959.17 105.47 959.17 603.43 599.77 603.43 231.17 733.97 216.97 739 202.77 744.02 188.57 749.05 174.37 754.09 160.17 759.12 60.17 794.52 60.17 647 160.17 586.75 174.37 578.21 188.57 569.65 202.77 561.1 231.17 544 959.17 105.47"/></svg>